# xmcd
# 
# Track frame offsets:
#     150
#     16024
#     23837
#     40689
#     54026
#     74595
#     96210
#     107343
#     122625
#     135502
#     151666
#     171633
# 
# Disc length: 2472
# 
# Revision: 1
# Processed by: cddbd v1.5.2PL0 Copyright (c) Steve Scherf et al.
# Submitted via: BonkEnc v1.0rc1
# 
DISCID=8b09a60c
DTITLE=Marshall Family - Peace
DYEAR=2001
DGENRE=Christian
TTITLE0=I Could Not Do Without Thee
TTITLE1=There's A Fountain Free
TTITLE2=The Christian Cowboy
TTITLE3=Covered By The Blood
TTITLE4=I'm In The Savior's Hand
TTITLE5=To The Highest Place
TTITLE6=Jesus, The Very Thought Of Thee
TTITLE7=He Abides
TTITLE8=Power In His Name
TTITLE9=Water From The Rock/Springs Of Living Water
TTITLE10=The Glory Of Your Presence
TTITLE11=Peace (Medley)
EXTD=
EXTT0=
EXTT1=
EXTT2=
EXTT3=
EXTT4=
EXTT5=
EXTT6=
EXTT7=
EXTT8=
EXTT9=
EXTT10=
EXTT11=
PLAYORDER=
